<mxfile host="app.diagrams.net" modified="2020-11-18T14:10:25.130Z" agent="5.0 (Macintosh)" etag="hQJzOeLnEpBML9Uw7uhx" version="13.9.9" type="github">
  <diagram id="yRnguYs6hvbD5JJDKoyp" name="Page-1">
    <mxGraphModel dx="1145" dy="738" grid="1" gridSize="10" guides="1" tooltips="1" connect="1" arrows="1" fold="1" page="1" pageScale="1" pageWidth="850" pageHeight="1100" math="0" shadow="0">
      <root>
        <mxCell id="0" />
        <mxCell id="1" parent="0" />
        <mxCell id="xbXCiBL3qjypmOi7MR6_-115" style="edgeStyle=orthogonalEdgeStyle;rounded=1;orthogonalLoop=1;jettySize=auto;html=1;entryX=0;entryY=0;entryDx=0;entryDy=0;startSize=26;" parent="1" source="xbXCiBL3qjypmOi7MR6_-1" target="xbXCiBL3qjypmOi7MR6_-112" edge="1">
          <mxGeometry relative="1" as="geometry" />
        </mxCell>
        <mxCell id="xbXCiBL3qjypmOi7MR6_-1" value="" style="rounded=1;whiteSpace=wrap;html=1;fillColor=#d5e8d4;strokeColor=#82b366;" parent="1" vertex="1">
          <mxGeometry x="165" y="80" width="230" height="200" as="geometry" />
        </mxCell>
        <mxCell id="xbXCiBL3qjypmOi7MR6_-16" value="a" style="swimlane;fontStyle=0;childLayout=stackLayout;horizontal=1;startSize=26;fillColor=none;horizontalStack=0;resizeParent=1;resizeParentMax=0;resizeLast=0;collapsible=1;marginBottom=0;rounded=1;swimlaneLine=1;glass=0;sketch=0;shadow=0;" parent="1" vertex="1">
          <mxGeometry x="175" y="98" width="210" height="164" as="geometry">
            <mxRectangle x="80" y="110" width="40" height="26" as="alternateBounds" />
          </mxGeometry>
        </mxCell>
        <mxCell id="xbXCiBL3qjypmOi7MR6_-17" value="data = torch.tensor(2)" style="text;strokeColor=none;fillColor=none;align=left;verticalAlign=top;spacingLeft=4;spacingRight=4;overflow=hidden;rotatable=0;points=[[0,0.5],[1,0.5]];portConstraint=eastwest;" parent="xbXCiBL3qjypmOi7MR6_-16" vertex="1">
          <mxGeometry y="26" width="210" height="26" as="geometry" />
        </mxCell>
        <mxCell id="xbXCiBL3qjypmOi7MR6_-18" value="grad = None" style="text;strokeColor=none;fillColor=none;align=left;verticalAlign=top;spacingLeft=4;spacingRight=4;overflow=hidden;rotatable=0;points=[[0,0.5],[1,0.5]];portConstraint=eastwest;" parent="xbXCiBL3qjypmOi7MR6_-16" vertex="1">
          <mxGeometry y="52" width="210" height="26" as="geometry" />
        </mxCell>
        <mxCell id="xbXCiBL3qjypmOi7MR6_-19" value="grad_fn = None" style="text;strokeColor=none;fillColor=none;align=left;verticalAlign=top;spacingLeft=4;spacingRight=4;overflow=hidden;rotatable=0;points=[[0,0.5],[1,0.5]];portConstraint=eastwest;" parent="xbXCiBL3qjypmOi7MR6_-16" vertex="1">
          <mxGeometry y="78" width="210" height="26" as="geometry" />
        </mxCell>
        <mxCell id="xbXCiBL3qjypmOi7MR6_-95" value="is_leaf = True" style="text;strokeColor=none;fillColor=none;spacingLeft=4;spacingRight=4;overflow=hidden;rotatable=0;points=[[0,0.5],[1,0.5]];portConstraint=eastwest;fontSize=12;rounded=1;shadow=0;glass=0;sketch=0;startSize=26;" parent="xbXCiBL3qjypmOi7MR6_-16" vertex="1">
          <mxGeometry y="104" width="210" height="30" as="geometry" />
        </mxCell>
        <mxCell id="xbXCiBL3qjypmOi7MR6_-96" value="requires_grad = False" style="text;strokeColor=none;fillColor=none;spacingLeft=4;spacingRight=4;overflow=hidden;rotatable=0;points=[[0,0.5],[1,0.5]];portConstraint=eastwest;fontSize=12;rounded=1;shadow=0;glass=0;sketch=0;startSize=26;" parent="xbXCiBL3qjypmOi7MR6_-16" vertex="1">
          <mxGeometry y="134" width="210" height="30" as="geometry" />
        </mxCell>
        <mxCell id="xbXCiBL3qjypmOi7MR6_-116" style="edgeStyle=orthogonalEdgeStyle;rounded=1;orthogonalLoop=1;jettySize=auto;html=1;exitX=0.5;exitY=1;exitDx=0;exitDy=0;entryX=1;entryY=0;entryDx=0;entryDy=0;startSize=26;" parent="1" source="xbXCiBL3qjypmOi7MR6_-105" target="xbXCiBL3qjypmOi7MR6_-112" edge="1">
          <mxGeometry relative="1" as="geometry" />
        </mxCell>
        <mxCell id="xbXCiBL3qjypmOi7MR6_-105" value="" style="rounded=1;whiteSpace=wrap;html=1;fillColor=#d5e8d4;strokeColor=#82b366;" parent="1" vertex="1">
          <mxGeometry x="455" y="80" width="230" height="200" as="geometry" />
        </mxCell>
        <mxCell id="xbXCiBL3qjypmOi7MR6_-106" value="b" style="swimlane;fontStyle=0;childLayout=stackLayout;horizontal=1;startSize=26;fillColor=none;horizontalStack=0;resizeParent=1;resizeParentMax=0;resizeLast=0;collapsible=1;marginBottom=0;rounded=1;swimlaneLine=1;glass=0;sketch=0;shadow=0;" parent="1" vertex="1">
          <mxGeometry x="465" y="98" width="210" height="164" as="geometry">
            <mxRectangle x="80" y="110" width="40" height="26" as="alternateBounds" />
          </mxGeometry>
        </mxCell>
        <mxCell id="xbXCiBL3qjypmOi7MR6_-107" value="data = torch.tensor(5)" style="text;strokeColor=none;fillColor=none;align=left;verticalAlign=top;spacingLeft=4;spacingRight=4;overflow=hidden;rotatable=0;points=[[0,0.5],[1,0.5]];portConstraint=eastwest;" parent="xbXCiBL3qjypmOi7MR6_-106" vertex="1">
          <mxGeometry y="26" width="210" height="26" as="geometry" />
        </mxCell>
        <mxCell id="xbXCiBL3qjypmOi7MR6_-108" value="grad = None" style="text;strokeColor=none;fillColor=none;align=left;verticalAlign=top;spacingLeft=4;spacingRight=4;overflow=hidden;rotatable=0;points=[[0,0.5],[1,0.5]];portConstraint=eastwest;" parent="xbXCiBL3qjypmOi7MR6_-106" vertex="1">
          <mxGeometry y="52" width="210" height="26" as="geometry" />
        </mxCell>
        <mxCell id="xbXCiBL3qjypmOi7MR6_-109" value="grad_fn = None" style="text;strokeColor=none;fillColor=none;align=left;verticalAlign=top;spacingLeft=4;spacingRight=4;overflow=hidden;rotatable=0;points=[[0,0.5],[1,0.5]];portConstraint=eastwest;" parent="xbXCiBL3qjypmOi7MR6_-106" vertex="1">
          <mxGeometry y="78" width="210" height="26" as="geometry" />
        </mxCell>
        <mxCell id="xbXCiBL3qjypmOi7MR6_-110" value="is_leaf = True" style="text;strokeColor=none;fillColor=none;spacingLeft=4;spacingRight=4;overflow=hidden;rotatable=0;points=[[0,0.5],[1,0.5]];portConstraint=eastwest;fontSize=12;rounded=1;shadow=0;glass=0;sketch=0;startSize=26;" parent="xbXCiBL3qjypmOi7MR6_-106" vertex="1">
          <mxGeometry y="104" width="210" height="30" as="geometry" />
        </mxCell>
        <mxCell id="xbXCiBL3qjypmOi7MR6_-111" value="requires_grad = True" style="text;strokeColor=none;fillColor=none;spacingLeft=4;spacingRight=4;overflow=hidden;rotatable=0;points=[[0,0.5],[1,0.5]];portConstraint=eastwest;fontSize=12;rounded=1;shadow=0;glass=0;sketch=0;startSize=26;" parent="xbXCiBL3qjypmOi7MR6_-106" vertex="1">
          <mxGeometry y="134" width="210" height="30" as="geometry" />
        </mxCell>
        <mxCell id="xbXCiBL3qjypmOi7MR6_-124" style="edgeStyle=orthogonalEdgeStyle;rounded=1;orthogonalLoop=1;jettySize=auto;html=1;entryX=0.5;entryY=0;entryDx=0;entryDy=0;startSize=26;" parent="1" source="xbXCiBL3qjypmOi7MR6_-112" target="xbXCiBL3qjypmOi7MR6_-117" edge="1">
          <mxGeometry relative="1" as="geometry">
            <mxPoint x="280" y="440" as="sourcePoint" />
          </mxGeometry>
        </mxCell>
        <mxCell id="I5uXExxvPvJX1PheCcKH-10" style="edgeStyle=orthogonalEdgeStyle;rounded=1;orthogonalLoop=1;jettySize=auto;html=1;entryX=0;entryY=0.5;entryDx=0;entryDy=0;startSize=26;fontSize=18;" edge="1" parent="1" source="xbXCiBL3qjypmOi7MR6_-112" target="I5uXExxvPvJX1PheCcKH-8">
          <mxGeometry relative="1" as="geometry" />
        </mxCell>
        <mxCell id="xbXCiBL3qjypmOi7MR6_-112" value="" style="ellipse;whiteSpace=wrap;html=1;rounded=1;shadow=0;glass=0;sketch=0;startSize=26;fillColor=#f8cecc;strokeColor=#b85450;" parent="1" vertex="1">
          <mxGeometry x="365" y="350" width="120" height="80" as="geometry" />
        </mxCell>
        <mxCell id="xbXCiBL3qjypmOi7MR6_-113" value="mul" style="text;html=1;strokeColor=none;fillColor=none;align=center;verticalAlign=middle;whiteSpace=wrap;rounded=0;shadow=0;glass=0;sketch=0;startSize=26;" parent="1" vertex="1">
          <mxGeometry x="405" y="380" width="40" height="20" as="geometry" />
        </mxCell>
        <mxCell id="xbXCiBL3qjypmOi7MR6_-117" value="" style="rounded=1;whiteSpace=wrap;html=1;fillColor=#e1d5e7;strokeColor=#9673a6;" parent="1" vertex="1">
          <mxGeometry x="155" y="500" width="230" height="200" as="geometry" />
        </mxCell>
        <mxCell id="xbXCiBL3qjypmOi7MR6_-118" value="c" style="swimlane;fontStyle=0;childLayout=stackLayout;horizontal=1;startSize=26;fillColor=none;horizontalStack=0;resizeParent=1;resizeParentMax=0;resizeLast=0;collapsible=1;marginBottom=0;rounded=1;swimlaneLine=1;glass=0;sketch=0;shadow=0;" parent="1" vertex="1">
          <mxGeometry x="165" y="518" width="210" height="164" as="geometry">
            <mxRectangle x="80" y="110" width="40" height="26" as="alternateBounds" />
          </mxGeometry>
        </mxCell>
        <mxCell id="xbXCiBL3qjypmOi7MR6_-119" value="data = torch.tensor(10)" style="text;strokeColor=none;fillColor=none;align=left;verticalAlign=top;spacingLeft=4;spacingRight=4;overflow=hidden;rotatable=0;points=[[0,0.5],[1,0.5]];portConstraint=eastwest;" parent="xbXCiBL3qjypmOi7MR6_-118" vertex="1">
          <mxGeometry y="26" width="210" height="26" as="geometry" />
        </mxCell>
        <mxCell id="xbXCiBL3qjypmOi7MR6_-120" value="grad = None" style="text;strokeColor=none;fillColor=none;align=left;verticalAlign=top;spacingLeft=4;spacingRight=4;overflow=hidden;rotatable=0;points=[[0,0.5],[1,0.5]];portConstraint=eastwest;" parent="xbXCiBL3qjypmOi7MR6_-118" vertex="1">
          <mxGeometry y="52" width="210" height="26" as="geometry" />
        </mxCell>
        <mxCell id="xbXCiBL3qjypmOi7MR6_-121" value="grad_fn = MulBackward" style="text;strokeColor=none;fillColor=none;align=left;verticalAlign=top;spacingLeft=4;spacingRight=4;overflow=hidden;rotatable=0;points=[[0,0.5],[1,0.5]];portConstraint=eastwest;" parent="xbXCiBL3qjypmOi7MR6_-118" vertex="1">
          <mxGeometry y="78" width="210" height="26" as="geometry" />
        </mxCell>
        <mxCell id="xbXCiBL3qjypmOi7MR6_-122" value="is_leaf = False" style="text;strokeColor=none;fillColor=none;spacingLeft=4;spacingRight=4;overflow=hidden;rotatable=0;points=[[0,0.5],[1,0.5]];portConstraint=eastwest;fontSize=12;rounded=1;shadow=0;glass=0;sketch=0;startSize=26;" parent="xbXCiBL3qjypmOi7MR6_-118" vertex="1">
          <mxGeometry y="104" width="210" height="30" as="geometry" />
        </mxCell>
        <mxCell id="xbXCiBL3qjypmOi7MR6_-123" value="requires_grad = True" style="text;strokeColor=none;fillColor=none;spacingLeft=4;spacingRight=4;overflow=hidden;rotatable=0;points=[[0,0.5],[1,0.5]];portConstraint=eastwest;fontSize=12;rounded=1;shadow=0;glass=0;sketch=0;startSize=26;" parent="xbXCiBL3qjypmOi7MR6_-118" vertex="1">
          <mxGeometry y="134" width="210" height="30" as="geometry" />
        </mxCell>
        <mxCell id="xbXCiBL3qjypmOi7MR6_-125" value="&lt;font style=&quot;font-size: 18px;&quot;&gt;a = torch.tensor(2)&lt;/font&gt;" style="text;html=1;align=center;verticalAlign=middle;whiteSpace=wrap;rounded=0;shadow=0;glass=0;sketch=0;startSize=26;fontSize=18;fontStyle=0;labelPosition=center;verticalLabelPosition=middle;" parent="1" vertex="1">
          <mxGeometry x="40" y="320" width="160" height="30" as="geometry" />
        </mxCell>
        <mxCell id="xbXCiBL3qjypmOi7MR6_-126" value="&lt;font style=&quot;font-size: 18px;&quot;&gt;b = torch.tensor(5)&lt;/font&gt;" style="text;html=1;align=center;verticalAlign=middle;whiteSpace=wrap;rounded=0;shadow=0;glass=0;sketch=0;startSize=26;fontSize=18;fontStyle=0;labelPosition=center;verticalLabelPosition=middle;" parent="1" vertex="1">
          <mxGeometry x="40" y="360" width="160" height="30" as="geometry" />
        </mxCell>
        <mxCell id="xbXCiBL3qjypmOi7MR6_-127" value="&lt;font style=&quot;font-size: 18px;&quot;&gt;c = a * b&lt;/font&gt;" style="text;html=1;align=center;verticalAlign=middle;whiteSpace=wrap;rounded=0;shadow=0;glass=0;sketch=0;startSize=26;fontSize=18;fontStyle=0;labelPosition=center;verticalLabelPosition=middle;" parent="1" vertex="1">
          <mxGeometry x="40" y="400" width="80" height="30" as="geometry" />
        </mxCell>
        <mxCell id="I5uXExxvPvJX1PheCcKH-1" value="" style="rounded=1;whiteSpace=wrap;html=1;fillColor=#dae8fc;strokeColor=#6c8ebf;" vertex="1" parent="1">
          <mxGeometry x="770" y="290" width="230" height="200" as="geometry" />
        </mxCell>
        <mxCell id="I5uXExxvPvJX1PheCcKH-18" style="edgeStyle=orthogonalEdgeStyle;rounded=1;orthogonalLoop=1;jettySize=auto;html=1;entryX=0;entryY=0.5;entryDx=0;entryDy=0;startSize=26;fontSize=18;" edge="1" parent="1" source="I5uXExxvPvJX1PheCcKH-8" target="I5uXExxvPvJX1PheCcKH-17">
          <mxGeometry relative="1" as="geometry" />
        </mxCell>
        <mxCell id="I5uXExxvPvJX1PheCcKH-8" value="" style="rounded=0;whiteSpace=wrap;html=1;shadow=0;glass=0;sketch=0;startSize=26;fillColor=#f5f5f5;fontSize=18;strokeColor=#666666;fontColor=#333333;" vertex="1" parent="1">
          <mxGeometry x="555" y="360" width="120" height="60" as="geometry" />
        </mxCell>
        <mxCell id="I5uXExxvPvJX1PheCcKH-9" value="&lt;font style=&quot;font-size: 12px&quot;&gt;ctx&lt;/font&gt;" style="text;html=1;strokeColor=none;fillColor=none;align=center;verticalAlign=middle;whiteSpace=wrap;rounded=0;shadow=0;glass=0;sketch=0;startSize=26;fontSize=18;" vertex="1" parent="1">
          <mxGeometry x="595" y="380" width="40" height="20" as="geometry" />
        </mxCell>
        <mxCell id="I5uXExxvPvJX1PheCcKH-14" value="&lt;font style=&quot;font-size: 14px&quot;&gt;MulBackward&lt;/font&gt;" style="text;html=1;strokeColor=none;fillColor=none;align=center;verticalAlign=middle;whiteSpace=wrap;rounded=0;shadow=0;glass=0;sketch=0;startSize=26;fontSize=18;" vertex="1" parent="1">
          <mxGeometry x="832.5" y="310" width="105" height="20" as="geometry" />
        </mxCell>
        <mxCell id="I5uXExxvPvJX1PheCcKH-16" value="Text" style="text;html=1;strokeColor=none;fillColor=none;align=center;verticalAlign=middle;whiteSpace=wrap;rounded=0;shadow=0;glass=0;sketch=0;startSize=26;fontSize=18;" vertex="1" parent="1">
          <mxGeometry x="770" y="220" width="40" height="20" as="geometry" />
        </mxCell>
        <mxCell id="I5uXExxvPvJX1PheCcKH-17" value="&lt;div&gt;&lt;br&gt;&lt;/div&gt;" style="rounded=1;whiteSpace=wrap;html=1;shadow=0;glass=0;sketch=0;startSize=26;fillColor=none;fontSize=18;align=left;" vertex="1" parent="1">
          <mxGeometry x="782.5" y="340" width="205" height="35" as="geometry" />
        </mxCell>
        <mxCell id="I5uXExxvPvJX1PheCcKH-19" value="&lt;div style=&quot;font-size: 12px&quot;&gt;&lt;font style=&quot;font-size: 12px&quot;&gt;next_functions = [&lt;/font&gt;&lt;/div&gt;&lt;div style=&quot;font-size: 12px&quot;&gt;&lt;font style=&quot;font-size: 12px&quot;&gt;&amp;nbsp;&amp;nbsp;&amp;nbsp; AccumulateGrad,&lt;/font&gt;&lt;/div&gt;&lt;div style=&quot;font-size: 12px&quot;&gt;&lt;font style=&quot;font-size: 12px&quot;&gt;&amp;nbsp;&amp;nbsp;&amp;nbsp; None&lt;/font&gt;&lt;/div&gt;&lt;div style=&quot;font-size: 12px&quot;&gt;&lt;font style=&quot;font-size: 12px&quot;&gt;]&lt;br&gt;&lt;/font&gt;&lt;/div&gt;" style="rounded=1;whiteSpace=wrap;html=1;shadow=0;glass=0;sketch=0;startSize=26;fillColor=none;fontSize=18;align=left;" vertex="1" parent="1">
          <mxGeometry x="782.5" y="390" width="205" height="80" as="geometry" />
        </mxCell>
        <mxCell id="I5uXExxvPvJX1PheCcKH-21" value="&lt;div align=&quot;left&quot;&gt;&lt;font style=&quot;font-size: 12px&quot;&gt;ctx.saved_tensors&lt;/font&gt;&lt;/div&gt;" style="text;html=1;strokeColor=none;fillColor=none;align=left;verticalAlign=middle;whiteSpace=wrap;rounded=0;shadow=0;glass=0;sketch=0;startSize=26;fontSize=18;" vertex="1" parent="1">
          <mxGeometry x="790" y="347.5" width="180" height="20" as="geometry" />
        </mxCell>
      </root>
    </mxGraphModel>
  </diagram>
</mxfile>
